<?xml version="1.0" standalone="no"?>
<!DOCTYPE svg PUBLIC "-//W3C//DTD SVG 20010904//EN"
 "http://www.w3.org/TR/2001/REC-SVG-20010904/DTD/svg10.dtd">
<svg version="1.0" xmlns="http://www.w3.org/2000/svg"
 width="840.000000pt" height="840.000000pt" viewBox="0 0 840.000000 840.000000"
 preserveAspectRatio="xMidYMid meet">
<metadata>
Created by potrace 1.11, written by Peter Selinger 2001-2013
</metadata>
<g transform="translate(0.000000,840.000000) scale(0.100000,-0.100000)"
fill="#000000" stroke="none">
<path d="M7328 6811 l-33 -29 0 -2582 0 -2582 33 -29 c47 -43 102 -41 148 5
l34 34 0 2572 0 2572 -34 34 c-46 46 -101 48 -148 5z"/>
<path d="M7724 6186 l-34 -34 0 -1961 0 -1961 29 -32 c26 -29 35 -33 80 -33
42 0 55 5 78 28 l28 27 3 1966 2 1966 -34 34 c-28 28 -42 34 -76 34 -34 0 -48
-6 -76 -34z"/>
<path d="M6955 5691 c-11 -5 -29 -19 -40 -31 -20 -22 -20 -36 -20 -2252 l0
-2230 33 -29 c47 -43 102 -41 148 5 l34 34 0 2221 0 2221 -27 30 c-30 33 -90
48 -128 31z"/>
<path d="M8154 5091 c-12 -5 -31 -22 -43 -37 l-21 -27 0 -828 0 -829 29 -32
c26 -29 35 -33 80 -33 42 0 55 5 78 28 l28 27 3 835 2 834 -27 31 c-30 34 -89
48 -129 31z"/>
<path d="M6524 4846 l-34 -34 2 -1977 3 -1977 33 -29 c24 -22 42 -29 72 -29
30 0 48 7 72 29 l33 29 3 1977 2 1977 -34 34 c-28 28 -42 34 -76 34 -34 0 -48
-6 -76 -34z"/>
<path d="M6154 4671 c-12 -5 -31 -22 -43 -37 l-21 -27 0 -1999 0 -2000 34 -34
c46 -46 101 -48 148 -5 l33 29 0 2011 0 2011 -26 26 c-28 28 -89 40 -125 25z"/>
<path d="M5754 4271 c-12 -5 -31 -22 -43 -37 l-21 -27 0 -1899 0 -1900 34 -34
c46 -46 101 -48 148 -5 l33 29 0 1911 0 1911 -26 26 c-28 28 -89 40 -125 25z"/>
<path d="M5324 3406 l-34 -34 2 -1567 3 -1567 33 -29 c45 -40 99 -40 144 0
l33 29 3 1567 2 1567 -34 34 c-28 28 -42 34 -76 34 -34 0 -48 -6 -76 -34z"/>
<path d="M4955 3011 c-11 -5 -29 -19 -40 -31 -20 -22 -20 -36 -20 -1431 l0
-1409 28 -27 c23 -23 36 -28 78 -28 45 0 54 4 80 33 l29 32 0 1400 0 1400 -27
30 c-30 33 -90 48 -128 31z"/>
<path d="M4555 2771 c-11 -5 -29 -19 -40 -31 -20 -22 -20 -36 -20 -1342 l0
-1320 33 -29 c47 -43 102 -41 148 5 l34 34 0 1311 0 1311 -27 30 c-30 33 -90
48 -128 31z"/>
<path d="M4125 2567 l-35 -35 2 -1236 3 -1236 28 -27 c23 -23 36 -28 77 -28
41 0 54 5 77 28 l28 27 3 1235 2 1234 -28 32 c-21 24 -38 32 -75 36 -43 5 -49
3 -82 -30z"/>
<path d="M3754 2391 c-12 -5 -31 -22 -43 -37 l-21 -27 0 -1119 0 -1120 34 -34
c46 -46 101 -48 148 -5 l33 29 0 1131 0 1131 -26 26 c-28 28 -89 40 -125 25z"/>
<path d="M3324 2306 l-34 -34 0 -1061 0 -1061 29 -32 c26 -29 35 -33 80 -33
42 0 55 5 78 28 l28 27 0 1071 0 1071 -33 29 c-47 43 -102 41 -148 -5z"/>
<path d="M2528 2191 l-33 -29 0 -892 0 -892 33 -29 c47 -43 102 -41 148 5 l34
34 0 882 0 882 -34 34 c-46 46 -101 48 -148 5z"/>
<path d="M2954 2151 c-12 -5 -31 -22 -43 -37 l-21 -27 2 -924 3 -925 33 -29
c45 -40 99 -40 144 0 l33 29 3 926 2 925 -27 31 c-30 34 -89 48 -129 31z"/>
<path d="M2155 2031 c-11 -5 -29 -19 -40 -31 -20 -22 -20 -36 -20 -722 l0
-700 33 -29 c47 -43 102 -41 148 5 l34 34 0 691 0 691 -27 30 c-30 33 -90 48
-128 31z"/>
<path d="M954 1871 c-12 -5 -31 -22 -43 -37 -18 -23 -21 -40 -21 -126 l0 -100
34 -34 c46 -46 101 -48 148 -5 l33 29 0 111 c0 106 -1 112 -26 137 -28 28 -89
40 -125 25z"/>
<path d="M1754 1871 c-12 -5 -31 -22 -43 -37 -21 -26 -21 -32 -21 -505 l0
-479 29 -32 c26 -29 35 -33 80 -33 42 0 55 5 78 28 l28 27 3 485 3 484 -28 31
c-30 34 -89 48 -129 31z"/>
<path d="M1324 1726 l-34 -34 0 -261 0 -261 29 -32 c26 -29 35 -33 80 -33 42
0 55 5 78 28 l28 27 0 271 0 271 -33 29 c-47 43 -102 41 -148 -5z"/>
</g>
</svg>
