<svg id="Isotip" xmlns="http://www.w3.org/2000/svg" viewBox="0 0 411 420"><defs><style>.cls-1{fill:#fff;}.cls-2{fill:red;}</style></defs><g id="Barres"><g id="Barres_superiors" data-name="Barres superiors"><rect class="cls-1" x="400" y="165" width="11" height="90" rx="5.5"/><rect class="cls-1" x="360" y="78" width="11" height="264" rx="5.5"/><rect class="cls-1" x="320" y="40" width="11" height="340" rx="5.5"/><rect class="cls-1" x="280" y="17" width="11" height="386" rx="5.5"/><rect class="cls-1" x="240" y="4" width="11" height="412" rx="5.5"/><rect class="cls-1" x="200" width="11" height="420" rx="5.5"/><rect class="cls-1" x="160" y="4" width="11" height="412" rx="5.5"/><rect class="cls-1" x="120" y="16" width="11" height="388" rx="5.5"/><rect class="cls-1" x="80" y="39" width="11" height="342" rx="5.5"/><rect class="cls-1" x="40" y="77" width="11" height="266" rx="5.5"/><rect class="cls-1" y="160" width="11" height="100" rx="5.5"/></g><g id="Barres_inferiors" data-name="Barres inferiors"><rect class="cls-2" x="400" y="165" width="11" height="90" rx="5.5"/><rect class="cls-2" x="380" y="109" width="11" height="203" rx="5.5"/><rect class="cls-2" x="360" y="78" width="11" height="264" rx="5.5"/><rect class="cls-2" x="340" y="135" width="11" height="229" rx="5.5"/><rect class="cls-2" x="320" y="176" width="11" height="204" rx="5.5"/><rect class="cls-2" x="300" y="186" width="11" height="207" rx="5.5"/><rect class="cls-2" x="280" y="206" width="11" height="197" rx="5.5"/><rect class="cls-2" x="260" y="248" width="11" height="163" rx="5.5"/><rect class="cls-2" x="240" y="269" width="11" height="147" rx="5.5"/><rect class="cls-2" x="220" y="281" width="11" height="138" rx="5.5"/><rect class="cls-2" x="200" y="290" width="11" height="130" rx="5.5"/><rect class="cls-2" x="180" y="300" width="11" height="119" rx="5.5"/><rect class="cls-2" x="160" y="303" width="11" height="113" rx="5.5"/><rect class="cls-2" x="140" y="312" width="11" height="99" rx="5.5"/><rect class="cls-2" x="120" y="309" width="11" height="95" rx="5.5"/><rect class="cls-2" x="100" y="318" width="11" height="76" rx="5.5"/><rect class="cls-2" x="80" y="326" width="11" height="55" rx="5.5"/><rect class="cls-2" x="60" y="332" width="11" height="33" rx="5.5"/><rect class="cls-2" x="40" y="326" width="11" height="17" rx="5.5"/></g></g></svg>